<svg width="18" height="18" viewBox="0 0 18 18" fill="none" xmlns="http://www.w3.org/2000/svg">
<path d="M9.00528 1.61775C11.4114 1.61775 11.6963 1.6283 12.6426 1.67051C13.522 1.70921 13.9969 1.85695 14.3135 1.98007C14.7321 2.14188 15.0346 2.33887 15.3477 2.65195C15.6643 2.96854 15.8577 3.26754 16.0195 3.68615C16.1427 4.00274 16.2904 4.48114 16.3291 5.35705C16.3713 6.30682 16.3819 6.59176 16.3819 8.99434C16.3819 11.4004 16.3713 11.6854 16.3291 12.6316C16.2904 13.511 16.1427 13.9859 16.0195 14.3025C15.8577 14.7211 15.6607 15.0236 15.3477 15.3367C15.0311 15.6533 14.7321 15.8468 14.3135 16.0086C13.9969 16.1317 13.5185 16.2795 12.6426 16.3182C11.6928 16.3604 11.4079 16.3709 9.00528 16.3709C6.59918 16.3709 6.31425 16.3604 5.36799 16.3182C4.48857 16.2795 4.01368 16.1317 3.69709 16.0086C3.27848 15.8468 2.97596 15.6498 2.66289 15.3367C2.3463 15.0201 2.15282 14.7211 1.99101 14.3025C1.86789 13.9859 1.72015 13.5075 1.68145 12.6316C1.63924 11.6818 1.62869 11.3969 1.62869 8.99434C1.62869 6.58824 1.63924 6.3033 1.68145 5.35705C1.72015 4.47763 1.86789 4.00274 1.99101 3.68615C2.15282 3.26754 2.34981 2.96502 2.66289 2.65195C2.97948 2.33536 3.27848 2.14188 3.69709 1.98007C4.01368 1.85695 4.49209 1.70921 5.36799 1.67051C6.31425 1.6283 6.59918 1.61775 9.00528 1.61775ZM9.00528 -0.00390625C6.56048 -0.00390625 6.25445 0.00664681 5.29412 0.048859C4.33731 0.0910713 3.6795 0.245849 3.10963 0.467464C2.51515 0.699631 2.01212 1.00567 1.51261 1.5087C1.00958 2.00821 0.703537 2.51124 0.47137 3.10221C0.249756 3.67559 0.0949775 4.32988 0.0527653 5.28669C0.0105531 6.25054 0 6.55658 0 9.00137C0 11.4462 0.0105531 11.7522 0.0527653 12.7125C0.0949775 13.6693 0.249756 14.3271 0.47137 14.897C0.703537 15.4915 1.00958 15.9945 1.51261 16.494C2.01212 16.9936 2.51515 17.3031 3.10612 17.5318C3.6795 17.7534 4.33379 17.9082 5.2906 17.9504C6.25093 17.9926 6.55697 18.0031 9.00176 18.0031C11.4466 18.0031 11.7526 17.9926 12.7129 17.9504C13.6697 17.9082 14.3275 17.7534 14.8974 17.5318C15.4884 17.3031 15.9914 16.9936 16.4909 16.494C16.9904 15.9945 17.3 15.4915 17.5286 14.9005C17.7502 14.3271 17.905 13.6729 17.9472 12.716C17.9894 11.7557 18 11.4497 18 9.00489C18 6.5601 17.9894 6.25406 17.9472 5.29373C17.905 4.33692 17.7502 3.67911 17.5286 3.10925C17.307 2.51124 17.001 2.00821 16.4979 1.5087C15.9984 1.00919 15.4954 0.699631 14.9044 0.470981C14.3311 0.249367 13.6768 0.094589 12.72 0.0523767C11.7561 0.00664681 11.4501 -0.00390625 9.00528 -0.00390625Z" fill="white"/>
<path d="M9.00528 4.37561C6.45144 4.37561 4.37952 6.44753 4.37952 9.00137C4.37952 11.5552 6.45144 13.6271 9.00528 13.6271C11.5591 13.6271 13.631 11.5552 13.631 9.00137C13.631 6.44753 11.5591 4.37561 9.00528 4.37561ZM9.00528 12.002C7.34845 12.002 6.00469 10.6582 6.00469 9.00137C6.00469 7.34454 7.34845 6.00078 9.00528 6.00078C10.6621 6.00078 12.0059 7.34454 12.0059 9.00137C12.0059 10.6582 10.6621 12.002 9.00528 12.002Z" fill="white"/>
<path d="M14.8939 4.19266C14.8939 4.79066 14.4084 5.27259 13.814 5.27259C13.2159 5.27259 12.734 4.78715 12.734 4.19266C12.734 3.59465 13.2195 3.11273 13.814 3.11273C14.4084 3.11273 14.8939 3.59817 14.8939 4.19266Z" fill="white"/>
</svg>
