<svg width="22" height="27" viewBox="0 0 22 27" fill="none" xmlns="http://www.w3.org/2000/svg">
<path d="M21.6902 9.09917C20.3888 3.37296 15.3938 0.794922 11.0062 0.794922C11.0062 0.794922 11.0062 0.794922 10.9938 0.794922C6.61858 0.794922 1.61124 3.36056 0.309833 9.08677C-1.14031 15.4823 2.77632 20.8986 6.32112 24.3071C7.63492 25.5713 9.32056 26.2034 11.0062 26.2034C12.6918 26.2034 14.3775 25.5713 15.6789 24.3071C19.2237 20.8986 23.1403 15.4947 21.6902 9.09917ZM11.0062 15.3088C8.84957 15.3088 7.10196 13.5612 7.10196 11.4045C7.10196 9.2479 8.84957 7.50029 11.0062 7.50029C13.1628 7.50029 14.9104 9.2479 14.9104 11.4045C14.9104 13.5612 13.1628 15.3088 11.0062 15.3088Z" fill="#01B8DE"/>
</svg>
