<svg width="34" height="36" viewBox="0 0 34 36" fill="none" xmlns="http://www.w3.org/2000/svg">
<path d="M16.6966 3.88555C16.4005 8.07637 16.0588 9.71626 15.0336 11.9028C13.3023 15.6381 10.0675 17.1641 2.64115 17.7563C-0.0469329 17.984 -0.593661 18.0751 0.590916 18.0979C5.14698 18.1662 9.31578 18.9634 11.4571 20.125C13.0745 20.9905 14.6008 22.767 15.307 24.6347C16.1954 26.8895 16.4005 28.0283 16.7194 32.2419L16.9928 36L17.175 32.7658C17.6534 23.9514 19.8175 20.3983 25.6265 18.9406C27.1756 18.5534 30.9115 18.1435 33.349 18.0979C34.5108 18.0751 33.8957 17.984 31.2077 17.7563C20.4554 16.8908 17.7901 14.0665 17.1294 2.86062L16.97 0.0135956L16.6966 3.88555Z" fill="#FFD781"/>
</svg>
